# xmcd
#
# Track frame offsets:
#	150
#	14659
#	23103
#	43292
#	56016
#	74306
#	88984
#	104097
#	118751
#	132757
#	150136
#	168046
#	185045
#	201895
#	215117
#
# Disc length: 3118 seconds
#
# Revision: 3
# Processed by: cddbd v1.5.1PL2 Copyright (c) Steve Scherf et al.
# Submitted via: EasyCDDAExtractor 9.1.3.1
#
DISCID=dd0c2c0f
DTITLE=Heidi Hauge - Country Perler
DYEAR=2003
DGENRE=Country
TTITLE0=Livets Landevei
TTITLE1=Teneesee Waltz
TTITLE2=Skadei "Der Elvene Møtes"
TTITLE3=Skilsmisse
TTITLE4=Din Samvittighet
TTITLE5=Mot Ingenting
TTITLE6=Luftslått I Det Blå
TTITLE7=Tenk På Hva Det Gjorde Mot Meg
TTITLE8=Kjærlighet Og Sympati
TTITLE9=Min Barndoms Grønne Dal
TTITLE10=Kom Ta Min Hånd
TTITLE11=Når Du Har Reist Fra Meg
TTITLE12=Uten Deg
TTITLE13=En Drøm Om Nashville
TTITLE14=Siste Dans
EXTD=
EXTT0=
EXTT1=
EXTT2=
EXTT3=
EXTT4=
EXTT5=
EXTT6=
EXTT7=
EXTT8=
EXTT9=
EXTT10=
EXTT11=
EXTT12=
EXTT13=
EXTT14=
PLAYORDER=
